<svg width="32" height="26" viewBox="0 0 32 26" fill="none" xmlns="http://www.w3.org/2000/svg">
<path d="M12.7147 25.4294C19.7369 25.4294 25.4294 19.7369 25.4294 12.7147C25.4294 5.69257 19.7369 0 12.7147 0C5.69257 0 0 5.69257 0 12.7147C0 19.7369 5.69257 25.4294 12.7147 25.4294Z" fill="#00D1FF"/>
<path d="M31.9492 7.50418C31.9388 7.41493 31.9269 7.32419 31.9135 7.23495C31.8733 6.96423 31.8183 6.695 31.7484 6.43024C31.6562 6.07474 31.5372 5.7237 31.3959 5.38753C31.1623 4.83123 30.8663 4.30765 30.5168 3.83017C30.1985 3.39286 29.8325 2.98828 29.428 2.62683C29.0412 2.28025 28.6188 1.97235 28.1726 1.71205L28.0803 1.65999C27.6609 1.42051 27.2161 1.22119 26.7595 1.06649C26.2567 0.892462 25.7257 0.769003 25.1798 0.703556C24.5833 0.633646 23.9809 0.633646 23.3889 0.703556C23.0275 0.745204 22.6645 0.812139 22.3105 0.905849C21.9565 0.998071 21.607 1.11707 21.2738 1.25689C21.1801 1.29556 21.0878 1.33721 20.9971 1.37886C19.6286 2.014 18.4878 3.02695 17.6845 4.32401C17.6845 4.32401 17.6845 4.32401 17.6845 4.3255L17.5998 4.47127L17.5031 4.63637L17.5001 4.64232C16.7147 6.06284 16.3964 7.66333 16.5838 9.26829C16.624 9.62825 16.6924 9.9897 16.7846 10.3452C16.8769 10.6992 16.9959 11.0488 17.1357 11.3834C17.3647 11.9323 17.6593 12.4574 18.0133 12.9438C18.3316 13.3811 18.6975 13.7857 19.1021 14.1441C19.4606 14.4669 19.8518 14.7555 20.2653 15.0054L20.359 15.0619C20.8052 15.3222 21.2797 15.5409 21.7706 15.7089C22.2837 15.8845 22.8148 16.0049 23.3517 16.0689C23.6522 16.1046 23.9556 16.1225 24.2606 16.1225C24.5655 16.1225 24.8481 16.1061 25.1411 16.0719C25.5026 16.0302 25.8655 15.9618 26.2225 15.8696C26.5765 15.7774 26.9246 15.6599 27.2578 15.5186C27.3515 15.4799 27.4437 15.4382 27.5344 15.3966C28.9029 14.7614 30.0438 13.75 30.844 12.4544V12.4514C30.844 12.4514 30.847 12.4514 30.847 12.4499L31.0314 12.1346C31.8168 10.7141 32.1351 9.1136 31.9477 7.50864L31.9492 7.50418ZM30.0036 3.99974L23.2491 15.5334C22.907 15.4843 22.5678 15.4115 22.2361 15.3148L29.3164 3.2233C29.5633 3.46426 29.7924 3.72457 30.0036 3.99974ZM28.1324 2.2862C28.4105 2.46321 28.6783 2.65806 28.9312 2.87226L21.7423 15.1482C21.4329 15.0322 21.131 14.8953 20.8409 14.7391L28.1324 2.2862ZM24.7276 1.17508L18.2052 12.3116C17.9954 11.9873 17.814 11.6467 17.6607 11.2957L23.5734 1.19739C23.9556 1.15872 24.3424 1.15128 24.7276 1.17508ZM17.0435 8.3788C17.0435 7.16206 17.3484 5.96913 17.9463 4.88924L18.1248 4.5858C18.7748 3.53715 19.6643 2.69079 20.7234 2.0973L17.0449 8.3788H17.0435ZM17.1044 9.28763L21.5489 1.69717C21.8375 1.57966 22.1365 1.47852 22.4414 1.39819C22.6021 1.35655 22.7642 1.32085 22.9278 1.28961L17.4228 10.6903C17.3692 10.5326 17.3216 10.3735 17.28 10.2128C17.1996 9.90789 17.1431 9.59702 17.1044 9.28763ZM18.5294 12.7697L25.2854 1.23458C25.6305 1.28515 25.9682 1.35803 26.2969 1.45472L19.2166 13.5462C18.9682 13.3052 18.7391 13.0449 18.5294 12.7712V12.7697ZM19.6034 13.8943L26.7907 1.62131C27.1001 1.73585 27.4021 1.87269 27.6921 2.03036L20.4006 14.4818C20.1225 14.3063 19.8562 14.1099 19.6034 13.8957V13.8943ZM23.8084 15.5914L30.3294 4.4549C30.5376 4.77619 30.7191 5.11682 30.8753 5.47083L24.9612 15.5706C24.5759 15.6078 24.1907 15.6167 23.8084 15.5914ZM26.0946 15.3698C25.9325 15.4115 25.7688 15.4486 25.6052 15.4799L31.1118 6.07622C31.1653 6.23538 31.2129 6.39454 31.256 6.55667C31.3349 6.86011 31.3929 7.1695 31.4316 7.47889L26.9856 15.0693C26.697 15.1869 26.398 15.288 26.0946 15.3683V15.3698ZM30.5897 11.8773L30.4112 12.1822C30.3606 12.264 30.3041 12.3428 30.249 12.4232C30.197 12.499 30.1494 12.5779 30.0943 12.6522C30.0319 12.737 29.9634 12.8173 29.898 12.9006C29.8474 12.9646 29.7983 13.0315 29.7463 13.0925C29.6734 13.1773 29.596 13.2561 29.5202 13.3365C29.4681 13.3915 29.4205 13.4495 29.367 13.5016C29.2852 13.5834 29.1989 13.6592 29.1126 13.7366C29.0606 13.7842 29.0115 13.8333 28.9579 13.8794C28.8731 13.9523 28.7824 14.0192 28.6946 14.0876C28.6366 14.1322 28.5816 14.1813 28.5221 14.2245C28.4358 14.2869 28.3466 14.3435 28.2588 14.4015C28.1919 14.4461 28.1279 14.4922 28.0595 14.5339C27.9792 14.5829 27.8944 14.6261 27.8111 14.6737L31.4896 8.39218C31.4911 9.60892 31.1846 10.8019 30.5882 11.8803L30.5897 11.8773Z" fill="#344054"/>
</svg>
